<svg xmlns="http://www.w3.org/2000/svg" width="921" height="595" fill="none" viewBox="0 0 921 595"><g filter="url(#a)"><path fill="#B22222" d="M899.559 11.906H497.222c0-1.953-1.953-3.906-3.906-3.906h-62.499c-1.953 0-3.906 1.953-3.906 3.906H24.574c-7.812 0-11.719 5.86-11.719 11.719V564.63c0 7.813 5.86 11.719 11.719 11.719h400.384c0 1.953 1.953 1.953 3.906 1.953h62.499c1.953 0 3.906-1.953 3.906-1.953h400.384c7.812 0 11.719-5.86 11.719-11.719V23.625c3.906-5.86-1.953-11.719-7.813-11.719"/></g><path fill="#fafafa" d="M903.466 11.926H22.621v562.49h880.845z" opacity=".02"/><path fill="#f5f5f5" d="M905.411 11.926H24.566v560.537h880.845z" opacity=".039"/><path fill="#f0f0f0" d="M905.411 13.873H24.566V574.41h880.845z" opacity=".059"/><path fill="#ebebeb" d="M903.458 13.873H24.566V574.41h878.892z" opacity=".078"/><path fill="#e6e6e6" d="M903.458 13.873H24.566V574.41h878.892z" opacity=".098"/><path fill="#e1e1e1" d="M903.458 13.873H24.566V574.41h878.892z" opacity=".118"/><path fill="#dcdcdc" d="M903.458 13.873H24.566v558.584h878.892z" opacity=".137"/><path fill="#d7d7d7" d="M901.505 13.873H24.566v558.584h876.939z" opacity=".157"/><path fill="#d2d2d2" d="M901.505 13.873H24.566v558.584h876.939z" opacity=".176"/><path fill="#cdcdcd" d="M901.505 13.873H24.566v558.584h876.939z" opacity=".196"/><path fill="#c8c8c8" d="M901.505 13.873H24.566v558.584h876.939z" opacity=".216"/><path fill="#c3c3c3" d="M901.516 15.818H26.531v558.585h874.985z" opacity=".235"/><path fill="#bebebe" d="M901.516 15.818H26.531V572.45h874.985z" opacity=".255"/><path fill="#b9b9b9" d="M901.516 15.818H26.531V572.45h874.985z" opacity=".275"/><path fill="#b4b4b4" d="M901.516 15.818H26.531V572.45h874.985z" opacity=".294"/><path fill="#afafaf" d="M901.516 15.818H26.531V572.45h874.985z" opacity=".314"/><path fill="#aaa" d="M899.563 15.818H26.531V572.45h873.032z" opacity=".333"/><path fill="#a5a5a5" d="M899.563 15.818H26.531v554.678h873.032z" opacity=".353"/><path fill="#a0a0a0" d="M899.563 15.818H26.531v554.678h873.032z" opacity=".372"/><path fill="#9b9b9b" d="M899.563 17.8H26.531V572.48h873.032z" opacity=".392"/><path fill="#969696" d="M897.61 17.8H26.531V572.48H897.61z" opacity=".412"/><path fill="#919191" d="M899.556 17.8H28.476V572.48h871.08z" opacity=".431"/><path fill="#8c8c8c" d="M899.556 17.8H28.476V572.48h871.08z" opacity=".451"/><path fill="#878787" d="M899.556 17.8H28.476v552.726h871.08z" opacity=".471"/><path fill="#828282" d="M897.602 17.8H28.477v552.726h869.125z" opacity=".49"/><path fill="#7d7d7d" d="M897.602 17.8H28.477v552.726h869.125z" opacity=".51"/><path fill="#787878" d="M897.602 17.8H28.477v552.726h869.125z" opacity=".529"/><path fill="#737373" d="M897.602 17.8H28.477v552.726h869.125z" opacity=".549"/><path fill="#6e6e6e" d="M895.649 19.748H28.477v552.725h867.172z" opacity=".569"/><path fill="#696969" d="M895.649 19.748H28.477V570.52h867.172z" opacity=".588"/><path fill="#cdcdcd" d="M895.649 19.748H28.477V570.52h867.172z" opacity=".608"/><path fill="#9e9e9d" d="M897.614 19.748H30.441V570.52h867.173z" opacity=".627"/><path fill="#5a5a5a" d="M895.661 19.748H30.441V570.52h865.22z" opacity=".647"/><path fill="#555" d="M895.661 19.748H30.441V570.52h865.22z" opacity=".667"/><path fill="#505050" d="M895.661 19.748H30.441v548.819h865.22z" opacity=".686"/><path fill="#969595" d="M895.661 19.748H30.441v548.819h865.22z"/><path fill="#464646" d="M893.708 19.748H30.441v548.819h863.267z" opacity=".726"/><path fill="#414141" d="M893.708 21.693H30.441v548.819h863.267z" opacity=".745"/><path fill="#3c3c3c" d="M893.708 21.693H30.441v548.819h863.267z" opacity=".765"/><path fill="#b7b7b7" d="M893.708 21.693H30.441v548.819h863.267z" opacity=".784"/><path fill="#323232" d="M891.755 21.693H30.441V568.56h861.314z" opacity=".804"/><path fill="#2d2d2d" d="M891.755 21.693H30.441V568.56h861.314z" opacity=".824"/><path fill="#1e1e1e" d="M891.747 21.693H32.387V568.56h859.36z" opacity=".882"/><path fill="#191919" d="M891.747 23.635H32.387v544.912h859.36z" opacity=".902"/><path fill="#141414" d="M891.747 23.635H32.387v544.912h859.36z" opacity=".922"/><path fill="#0f0f0f" d="M891.747 23.635H32.387v544.912h859.36z" opacity=".941"/><path fill="#0a0a0a" d="M889.794 23.635H32.387v544.912h857.407z" opacity=".961"/><path fill="#050505" d="M889.794 23.635H32.387v544.912h857.407z" opacity=".98"/><path fill="#000" d="M889.794 23.635H32.387v544.912h857.407z"/><path fill="url(#b)" d="M462.075 17.766H30.441v550.771h431.634z"/><path fill="url(#c)" d="M462.079 17.766H34.352v550.771h427.727z"/><path fill="url(#d)" d="M462.071 17.766H36.297v550.771H462.07z"/><path fill="url(#e)" d="M462.083 17.766H38.262v550.771h423.821z"/><path fill="url(#f)" d="M462.075 17.766H40.207v550.771h421.868z"/><path fill="url(#g)" d="M462.079 17.766H44.117v550.771H462.08z"/><path fill="url(#h)" d="M462.071 17.766H46.063v550.771H462.07z"/><path fill="url(#i)" d="M462.083 17.766H48.027v550.771h414.056z"/><path fill="url(#j)" d="M462.075 17.766H49.973v550.771h412.102z"/><path fill="url(#k)" d="M462.067 17.766H51.918v550.771h410.149z"/><path fill="url(#l)" d="M462.079 17.766H53.883v550.771h408.196z"/><path fill="url(#m)" d="M462.071 17.766H55.828v550.771h406.243z"/><path fill="url(#n)" d="M462.083 17.766H57.793v550.771h404.29z"/><path fill="url(#o)" d="M891.749 568.537H462.068V17.766h429.681z"/><path fill="url(#p)" d="M889.796 568.537H462.068V17.766h427.728z"/><path fill="url(#q)" d="M887.842 568.537H462.068V17.766h425.774z"/><path fill="url(#r)" d="M885.889 568.537H462.068V17.766h423.821z"/><path fill="url(#s)" d="M881.983 568.537H462.068V17.766h419.915z"/><path fill="url(#t)" d="M880.03 568.537H462.068V17.766H880.03z"/><path fill="url(#u)" d="M878.077 568.537H462.068V17.766h416.009z"/><path fill="url(#v)" d="M876.124 568.537H462.068V17.766h414.056z"/><path fill="url(#w)" d="M874.171 568.537H462.068V17.766h412.103z"/><path fill="url(#x)" d="M870.265 568.537H462.068V17.766h408.197z"/><path fill="url(#y)" d="M870.265 568.537H462.068V17.766h408.197z"/><path fill="url(#z)" d="M868.311 568.537H462.068V17.766h406.243z"/><path fill="url(#A)" d="M866.358 568.537h-404.29V17.766h404.29z"/><defs><linearGradient id="b" x1="31.014" x2="461.737" y1="293.88" y2="293.88" gradientUnits="userSpaceOnUse"><stop stop-color="#ededed"/><stop offset=".002" stop-color="#e9e9e9"/><stop offset=".005" stop-color="#ddd"/><stop offset=".007" stop-color="#c8c8c8"/><stop offset=".009" stop-color="#b5b5b5"/><stop offset=".185" stop-color="#afafaf"/><stop offset=".42" stop-color="#9e9e9e"/><stop offset=".685" stop-color="#838383"/><stop offset=".715" stop-color="gray"/><stop offset="1" stop-color="#4d4d4d"/></linearGradient><linearGradient id="c" x1="34.105" x2="461.741" y1="293.88" y2="293.88" gradientUnits="userSpaceOnUse"><stop stop-color="#ededed"/><stop offset=".002" stop-color="#e9e9e9"/><stop offset=".005" stop-color="#ddd"/><stop offset=".007" stop-color="#c8c8c8"/><stop offset=".009" stop-color="#b5b5b5"/><stop offset=".185" stop-color="#afafaf"/><stop offset=".42" stop-color="#9e9e9e"/><stop offset=".685" stop-color="#838383"/><stop offset=".715" stop-color="gray"/><stop offset="1" stop-color="#4d4d4d"/></linearGradient><linearGradient id="d" x1="36.498" x2="461.733" y1="293.88" y2="293.88" gradientUnits="userSpaceOnUse"><stop stop-color="#ededed"/><stop offset=".002" stop-color="#e9e9e9"/><stop offset=".005" stop-color="#ddd"/><stop offset=".007" stop-color="#c8c8c8"/><stop offset=".009" stop-color="#b5b5b5"/><stop offset=".185" stop-color="#afafaf"/><stop offset=".42" stop-color="#9e9e9e"/><stop offset=".685" stop-color="#838383"/><stop offset=".715" stop-color="gray"/><stop offset="1" stop-color="#4d4d4d"/></linearGradient><linearGradient id="e" x1="38.375" x2="461.745" y1="293.88" y2="293.88" gradientUnits="userSpaceOnUse"><stop stop-color="#ededed"/><stop offset=".002" stop-color="#e9e9e9"/><stop offset=".005" stop-color="#ddd"/><stop offset=".007" stop-color="#c8c8c8"/><stop offset=".009" stop-color="#b5b5b5"/><stop offset=".185" stop-color="#afafaf"/><stop offset=".42" stop-color="#9e9e9e"/><stop offset=".685" stop-color="#838383"/><stop offset=".715" stop-color="gray"/><stop offset="1" stop-color="#4d4d4d"/></linearGradient><linearGradient id="f" x1="40.766" x2="461.737" y1="293.88" y2="293.88" gradientUnits="userSpaceOnUse"><stop stop-color="#ededed"/><stop offset=".002" stop-color="#e9e9e9"/><stop offset=".005" stop-color="#ddd"/><stop offset=".007" stop-color="#c8c8c8"/><stop offset=".009" stop-color="#b5b5b5"/><stop offset=".185" stop-color="#afafaf"/><stop offset=".42" stop-color="#9e9e9e"/><stop offset=".685" stop-color="#838383"/><stop offset=".715" stop-color="gray"/><stop offset="1" stop-color="#4d4d4d"/></linearGradient><linearGradient id="g" x1="43.436" x2="461.741" y1="293.88" y2="293.88" gradientUnits="userSpaceOnUse"><stop stop-color="#ededed"/><stop offset=".002" stop-color="#e9e9e9"/><stop offset=".005" stop-color="#ddd"/><stop offset=".007" stop-color="#c8c8c8"/><stop offset=".009" stop-color="#b5b5b5"/><stop offset=".185" stop-color="#afafaf"/><stop offset=".42" stop-color="#9e9e9e"/><stop offset=".685" stop-color="#838383"/><stop offset=".715" stop-color="gray"/><stop offset="1" stop-color="#4d4d4d"/></linearGradient><linearGradient id="h" x1="46.094" x2="461.733" y1="293.88" y2="293.88" gradientUnits="userSpaceOnUse"><stop stop-color="#ededed"/><stop offset=".002" stop-color="#e9e9e9"/><stop offset=".005" stop-color="#ddd"/><stop offset=".007" stop-color="#c8c8c8"/><stop offset=".009" stop-color="#b5b5b5"/><stop offset=".185" stop-color="#afafaf"/><stop offset=".42" stop-color="#9e9e9e"/><stop offset=".685" stop-color="#838383"/><stop offset=".715" stop-color="gray"/><stop offset="1" stop-color="#4d4d4d"/></linearGradient><linearGradient id="i" x1="48.238" x2="461.745" y1="293.88" y2="293.88" gradientUnits="userSpaceOnUse"><stop stop-color="#ededed"/><stop offset=".002" stop-color="#e9e9e9"/><stop offset=".005" stop-color="#ddd"/><stop offset=".007" stop-color="#c8c8c8"/><stop offset=".009" stop-color="#b5b5b5"/><stop offset=".185" stop-color="#afafaf"/><stop offset=".42" stop-color="#9e9e9e"/><stop offset=".685" stop-color="#838383"/><stop offset=".715" stop-color="gray"/><stop offset="1" stop-color="#4d4d4d"/></linearGradient><linearGradient id="j" x1="50.23" x2="461.737" y1="293.88" y2="293.88" gradientUnits="userSpaceOnUse"><stop stop-color="#ededed"/><stop offset=".002" stop-color="#e9e9e9"/><stop offset=".005" stop-color="#ddd"/><stop offset=".007" stop-color="#c8c8c8"/><stop offset=".009" stop-color="#b5b5b5"/><stop offset=".185" stop-color="#afafaf"/><stop offset=".42" stop-color="#9e9e9e"/><stop offset=".685" stop-color="#838383"/><stop offset=".715" stop-color="gray"/><stop offset="1" stop-color="#4d4d4d"/></linearGradient><linearGradient id="k" x1="52.422" x2="461.729" y1="293.88" y2="293.88" gradientUnits="userSpaceOnUse"><stop stop-color="#ededed"/><stop offset=".002" stop-color="#e9e9e9"/><stop offset=".005" stop-color="#ddd"/><stop offset=".007" stop-color="#c8c8c8"/><stop offset=".009" stop-color="#b5b5b5"/><stop offset=".185" stop-color="#afafaf"/><stop offset=".42" stop-color="#9e9e9e"/><stop offset=".685" stop-color="#838383"/><stop offset=".715" stop-color="gray"/><stop offset="1" stop-color="#4d4d4d"/></linearGradient><linearGradient id="l" x1="54.166" x2="461.741" y1="293.88" y2="293.88" gradientUnits="userSpaceOnUse"><stop stop-color="#ededed"/><stop offset=".002" stop-color="#e9e9e9"/><stop offset=".005" stop-color="#ddd"/><stop offset=".007" stop-color="#c8c8c8"/><stop offset=".009" stop-color="#b5b5b5"/><stop offset=".185" stop-color="#afafaf"/><stop offset=".42" stop-color="#9e9e9e"/><stop offset=".685" stop-color="#838383"/><stop offset=".715" stop-color="gray"/><stop offset="1" stop-color="#4d4d4d"/></linearGradient><linearGradient id="m" x1="55.891" x2="461.733" y1="293.88" y2="293.88" gradientUnits="userSpaceOnUse"><stop stop-color="#ededed"/><stop offset=".002" stop-color="#e9e9e9"/><stop offset=".005" stop-color="#ddd"/><stop offset=".007" stop-color="#c8c8c8"/><stop offset=".009" stop-color="#b5b5b5"/><stop offset=".185" stop-color="#afafaf"/><stop offset=".42" stop-color="#9e9e9e"/><stop offset=".685" stop-color="#838383"/><stop offset=".715" stop-color="gray"/><stop offset="1" stop-color="#4d4d4d"/></linearGradient><linearGradient id="n" x1="57.102" x2="461.745" y1="293.88" y2="293.88" gradientUnits="userSpaceOnUse"><stop stop-color="#ededed"/><stop offset=".002" stop-color="#e9e9e9"/><stop offset=".005" stop-color="#ddd"/><stop offset=".007" stop-color="#c8c8c8"/><stop offset=".009" stop-color="#b5b5b5"/><stop offset=".185" stop-color="#afafaf"/><stop offset=".42" stop-color="#9e9e9e"/><stop offset=".685" stop-color="#838383"/><stop offset=".715" stop-color="gray"/><stop offset="1" stop-color="#4d4d4d"/></linearGradient><linearGradient id="o" x1="892.61" x2="461.887" y1="293.88" y2="293.88" gradientUnits="userSpaceOnUse"><stop stop-color="#c7c7c7"/><stop offset=".002" stop-color="#c3c3c3"/><stop offset=".004" stop-color="#b6b6b6"/><stop offset=".005" stop-color="#a2a2a2"/><stop offset=".007" stop-color="#858585"/><stop offset=".009" stop-color="#6b6b6b"/><stop offset=".333" stop-color="#717171"/><stop offset=".715" stop-color="gray"/><stop offset="1" stop-color="#4d4d4d"/></linearGradient><linearGradient id="p" x1="889.522" x2="461.887" y1="293.88" y2="293.88" gradientUnits="userSpaceOnUse"><stop stop-color="#c7c7c7"/><stop offset=".002" stop-color="#c3c3c3"/><stop offset=".004" stop-color="#b6b6b6"/><stop offset=".005" stop-color="#a2a2a2"/><stop offset=".007" stop-color="#858585"/><stop offset=".009" stop-color="#6b6b6b"/><stop offset=".333" stop-color="#717171"/><stop offset=".715" stop-color="gray"/><stop offset="1" stop-color="#4d4d4d"/></linearGradient><linearGradient id="q" x1="887.124" x2="461.887" y1="293.88" y2="293.88" gradientUnits="userSpaceOnUse"><stop stop-color="#c7c7c7"/><stop offset=".002" stop-color="#c3c3c3"/><stop offset=".004" stop-color="#b6b6b6"/><stop offset=".005" stop-color="#a2a2a2"/><stop offset=".007" stop-color="#858585"/><stop offset=".009" stop-color="#6b6b6b"/><stop offset=".333" stop-color="#717171"/><stop offset=".715" stop-color="gray"/><stop offset="1" stop-color="#4d4d4d"/></linearGradient><linearGradient id="r" x1="885.257" x2="461.887" y1="293.88" y2="293.88" gradientUnits="userSpaceOnUse"><stop stop-color="#c7c7c7"/><stop offset=".002" stop-color="#c3c3c3"/><stop offset=".004" stop-color="#b6b6b6"/><stop offset=".005" stop-color="#a2a2a2"/><stop offset=".007" stop-color="#858585"/><stop offset=".009" stop-color="#6b6b6b"/><stop offset=".333" stop-color="#717171"/><stop offset=".715" stop-color="gray"/><stop offset="1" stop-color="#4d4d4d"/></linearGradient><linearGradient id="s" x1="882.858" x2="461.887" y1="293.88" y2="293.88" gradientUnits="userSpaceOnUse"><stop stop-color="#c7c7c7"/><stop offset=".002" stop-color="#c3c3c3"/><stop offset=".004" stop-color="#b6b6b6"/><stop offset=".005" stop-color="#a2a2a2"/><stop offset=".007" stop-color="#858585"/><stop offset=".009" stop-color="#6b6b6b"/><stop offset=".333" stop-color="#717171"/><stop offset=".715" stop-color="gray"/><stop offset="1" stop-color="#4d4d4d"/></linearGradient><linearGradient id="t" x1="880.192" x2="461.887" y1="293.88" y2="293.88" gradientUnits="userSpaceOnUse"><stop stop-color="#c7c7c7"/><stop offset=".002" stop-color="#c3c3c3"/><stop offset=".004" stop-color="#b6b6b6"/><stop offset=".005" stop-color="#a2a2a2"/><stop offset=".007" stop-color="#858585"/><stop offset=".009" stop-color="#6b6b6b"/><stop offset=".333" stop-color="#717171"/><stop offset=".715" stop-color="gray"/><stop offset="1" stop-color="#4d4d4d"/></linearGradient><linearGradient id="u" x1="877.526" x2="461.887" y1="293.88" y2="293.88" gradientUnits="userSpaceOnUse"><stop stop-color="#c7c7c7"/><stop offset=".002" stop-color="#c3c3c3"/><stop offset=".004" stop-color="#b6b6b6"/><stop offset=".005" stop-color="#a2a2a2"/><stop offset=".007" stop-color="#858585"/><stop offset=".009" stop-color="#6b6b6b"/><stop offset=".333" stop-color="#717171"/><stop offset=".715" stop-color="gray"/><stop offset="1" stop-color="#4d4d4d"/></linearGradient><linearGradient id="v" x1="875.393" x2="461.887" y1="293.88" y2="293.88" gradientUnits="userSpaceOnUse"><stop stop-color="#c7c7c7"/><stop offset=".002" stop-color="#c3c3c3"/><stop offset=".004" stop-color="#b6b6b6"/><stop offset=".005" stop-color="#a2a2a2"/><stop offset=".007" stop-color="#858585"/><stop offset=".009" stop-color="#6b6b6b"/><stop offset=".333" stop-color="#717171"/><stop offset=".715" stop-color="gray"/><stop offset="1" stop-color="#4d4d4d"/></linearGradient><linearGradient id="w" x1="873.395" x2="461.887" y1="293.88" y2="293.88" gradientUnits="userSpaceOnUse"><stop stop-color="#c7c7c7"/><stop offset=".002" stop-color="#c3c3c3"/><stop offset=".004" stop-color="#b6b6b6"/><stop offset=".005" stop-color="#a2a2a2"/><stop offset=".007" stop-color="#858585"/><stop offset=".009" stop-color="#6b6b6b"/><stop offset=".333" stop-color="#717171"/><stop offset=".715" stop-color="gray"/><stop offset="1" stop-color="#4d4d4d"/></linearGradient><linearGradient id="x" x1="871.196" x2="461.887" y1="293.88" y2="293.88" gradientUnits="userSpaceOnUse"><stop stop-color="#c7c7c7"/><stop offset=".002" stop-color="#c3c3c3"/><stop offset=".004" stop-color="#b6b6b6"/><stop offset=".005" stop-color="#a2a2a2"/><stop offset=".007" stop-color="#858585"/><stop offset=".009" stop-color="#6b6b6b"/><stop offset=".333" stop-color="#717171"/><stop offset=".715" stop-color="gray"/><stop offset="1" stop-color="#4d4d4d"/></linearGradient><linearGradient id="y" x1="869.462" x2="461.887" y1="293.88" y2="293.88" gradientUnits="userSpaceOnUse"><stop stop-color="#c7c7c7"/><stop offset=".002" stop-color="#c3c3c3"/><stop offset=".004" stop-color="#b6b6b6"/><stop offset=".005" stop-color="#a2a2a2"/><stop offset=".007" stop-color="#858585"/><stop offset=".009" stop-color="#6b6b6b"/><stop offset=".333" stop-color="#717171"/><stop offset=".715" stop-color="gray"/><stop offset="1" stop-color="#4d4d4d"/></linearGradient><linearGradient id="z" x1="867.729" x2="461.887" y1="293.88" y2="293.88" gradientUnits="userSpaceOnUse"><stop stop-color="#c7c7c7"/><stop offset=".002" stop-color="#c3c3c3"/><stop offset=".004" stop-color="#b6b6b6"/><stop offset=".005" stop-color="#a2a2a2"/><stop offset=".007" stop-color="#858585"/><stop offset=".009" stop-color="#6b6b6b"/><stop offset=".333" stop-color="#717171"/><stop offset=".715" stop-color="gray"/><stop offset="1" stop-color="#4d4d4d"/></linearGradient><linearGradient id="A" x1="866.53" x2="461.887" y1="293.88" y2="293.88" gradientUnits="userSpaceOnUse"><stop stop-color="#c7c7c7"/><stop offset=".002" stop-color="#c3c3c3"/><stop offset=".004" stop-color="#b6b6b6"/><stop offset=".005" stop-color="#a2a2a2"/><stop offset=".007" stop-color="#858585"/><stop offset=".009" stop-color="#6b6b6b"/><stop offset=".333" stop-color="#717171"/><stop offset=".715" stop-color="gray"/><stop offset="1" stop-color="#4d4d4d"/></linearGradient><filter id="a" width="919.781" height="594.303" x=".855" y="0" color-interpolation-filters="sRGB" filterUnits="userSpaceOnUse"><feFlood flood-opacity="0" result="BackgroundImageFix"/><feColorMatrix in="SourceAlpha" result="hardAlpha" values="0 0 0 0 0 0 0 0 0 0 0 0 0 0 0 0 0 0 127 0"/><feOffset dy="4"/><feGaussianBlur stdDeviation="6"/><feComposite in2="hardAlpha" operator="out"/><feColorMatrix values="0 0 0 0 0.0338542 0 0 0 0 0.270833 0 0 0 0 0.19579 0 0 0 0.3 0"/><feBlend in2="BackgroundImageFix" result="effect1_dropShadow_22201_195925"/><feColorMatrix in="SourceAlpha" result="hardAlpha" values="0 0 0 0 0 0 0 0 0 0 0 0 0 0 0 0 0 0 127 0"/><feOffset dy="2"/><feGaussianBlur stdDeviation="1.5"/><feComposite in2="hardAlpha" operator="out"/><feColorMatrix values="0 0 0 0 0.00920139 0 0 0 0 0.220833 0 0 0 0 0.153817 0 0 0 0.35 0"/><feBlend in2="effect1_dropShadow_22201_195925" result="effect2_dropShadow_22201_195925"/><feBlend in="SourceGraphic" in2="effect2_dropShadow_22201_195925" result="shape"/></filter></defs></svg>